<?xml version="1.0" encoding="utf-8"?>
<!-- Generator: Adobe Illustrator 18.1.1, SVG Export Plug-In . SVG Version: 6.00 Build 0)  -->
<!DOCTYPE svg PUBLIC "-//W3C//DTD SVG 1.1//EN" "http://www.w3.org/Graphics/SVG/1.1/DTD/svg11.dtd">
<svg version="1.1" id="Layer_1" xmlns="http://www.w3.org/2000/svg" xmlns:xlink="http://www.w3.org/1999/xlink" x="0px" y="0px"
	 viewBox="0 0 535.3 273.5" enable-background="new 0 0 535.3 273.5" xml:space="preserve">
<g>
	<path d="M274.7,139.3h-22.3l0.1,66.1h22.3c15,0,32.3-8.8,32.3-33.2C307.2,147.8,289.7,139.3,274.7,139.3 M291.8,172.2
		c0,13-5.5,19.7-19.4,19.7h-4.6l-0.1-39.2h4.6C286.2,152.7,291.8,159.3,291.8,172.2"/>
	<path d="M346.8,139.3v41.6c0,8.5-3.5,12.4-11.1,12.4c-7.6,0-11.1-4-11.1-12.4v-41.6h-15.2v41.4c0,16.6,9.6,26.2,26.3,26.2
		c16.7,0,26.3-9.5,26.3-26.2v-41.4H346.8z"/>
	<polygon points="419.5,139.3 419.5,152.8 436.5,152.8 436.5,205.4 451.7,205.4 451.7,152.8 468.7,152.8 468.7,139.3 	"/>
	<path d="M154.3,139.3H140l-23.5,66.2h16.1l4-12.1h21.1l3.8,12.1h16.2L154.3,139.3z M140.1,180.3l7-21.5l7,21.5H140.1z"/>
	<rect x="223.7" y="66.7" width="15.2" height="66.2"/>
	<polygon points="428,66.7 428,132.8 468.7,132.8 468.7,119.3 443.2,119.3 443.2,66.7 	"/>
	<path d="M158.5,66.7h-14.3l-23.5,66.2h16.1l4-12.1h21.1l3.8,12.1H182L158.5,66.7z M144.3,107.7l7-21.5l7,21.5H144.3z"/>
	<path d="M402.2,66.7H388l-23.5,66.2h16.1l4-12.1h21.1l3.8,12.1h16.2L402.2,66.7z M388,107.7l7-21.5l7,21.5H388z"/>
	<polygon points="347,66.7 347,106.5 324.6,66.7 309.6,66.7 309.6,132.8 324.8,132.8 324.8,94.6 346.9,132.8 362.1,132.8 
		362.1,66.7 	"/>
	<polygon points="104.1,66.7 104.1,106.5 81.6,66.7 66.7,66.7 66.7,132.8 81.9,132.8 81.9,94.6 103.9,132.8 119.2,132.8 119.2,66.7 
			"/>
	<polygon points="171.7,66.7 171.7,80.2 188.7,80.2 188.7,132.8 203.8,132.8 203.8,80.2 220.8,80.2 220.8,66.7 	"/>
	<polygon points="208,168.9 199.1,205.4 184.4,205.4 166.3,139.3 182.3,139.3 192.5,179.5 201.6,140.3 214.4,140.3 223.5,179.5 
		233.7,139.3 249.8,139.3 231.6,205.4 217,205.4 	"/>
	<g>
		<path d="M273.8,133.9c-19.5,0-31.4-15-31.4-34.2c0-19.8,11.8-34.4,31.8-34.4c20,0,32,14.4,32,34.2S293.6,133.9,273.8,133.9z
			 M289.4,91.8c-1.8-7.5-7.2-12.7-15.3-12.7C262.7,79,258,89.6,258,99.6c0,10.1,4.6,20.6,16.2,20.6c10.9,0,16.1-9.3,16.1-19.1
			C290.3,97.9,290.2,94.8,289.4,91.8z"/>
	</g>
	<path d="M64.9,186.8L64.9,186.8c3.5,12.8,12.9,20.1,28.9,20.1c13.5,0,25-9,25-21.9c0-10.2-8.5-16.3-20-19.1
		c-4.5-1.1-5.9-1.3-9.7-2.5c-4.1-1.3-6-2.5-6.2-6.3c-0.2-3.9,3.5-7.1,9.3-7.3c8.7-0.3,11.3,6,12.3,9.2l14.6-3.9
		c-1.3-4.5-6.3-18-27.1-17.9c-13.7,0.1-25.1,8.9-24.5,21.8c0.5,10.1,7.8,15.3,18.2,17.8l10.4,2.7c4.7,1.4,6.6,3.8,6.6,6.9
		c0,4-3.6,7.4-9.5,7.4c-8.2,0-12.3-5.8-13.3-11.1L64.9,186.8z"/>
	<path d="M363.9,186.8L363.9,186.8c3.5,12.8,12.9,20.1,28.9,20.1c13.5,0,25-9,25-21.9c0-10.2-8.5-16.3-20-19.1
		c-4.5-1.1-5.9-1.3-9.7-2.5c-4.1-1.3-6-2.5-6.2-6.3c-0.2-3.9,3.5-7.1,9.3-7.3c8.7-0.3,11.3,6,12.3,9.2l14.6-3.9
		c-1.3-4.5-6.3-18-27.1-17.9c-13.7,0.1-25.1,8.9-24.5,21.8c0.5,10.1,7.8,15.3,18.2,17.8l10.4,2.7c4.7,1.4,6.6,3.8,6.6,6.9
		c0,4-3.6,7.4-9.5,7.4c-8.2,0-12.3-5.8-13.3-11.1L363.9,186.8z"/>
</g>
</svg>
